<?xml version="1.0" standalone="no"?>
<!DOCTYPE svg PUBLIC "-//W3C//DTD SVG 20010904//EN"
 "http://www.w3.org/TR/2001/REC-SVG-20010904/DTD/svg10.dtd">
<svg version="1.0" xmlns="http://www.w3.org/2000/svg"
 width="640.000000pt" height="800.000000pt" viewBox="0 0 640.000000 800.000000"
 preserveAspectRatio="xMidYMid meet">
<metadata>
Created by potrace 1.16, written by Peter Selinger 2001-2019
</metadata>
<g transform="translate(0.000000,800.000000) scale(0.100000,-0.100000)"
fill="#000000" stroke="none">
<path d="M2861 7074 c0 -11 3 -14 6 -6 3 7 2 16 -1 19 -3 4 -6 -2 -5 -13z"/>
<path d="M2885 6941 c-3 -5 -2 -12 3 -15 5 -3 9 1 9 9 0 17 -3 19 -12 6z"/>
<path d="M2990 6921 c0 -6 -7 -11 -16 -11 -11 0 -14 -5 -10 -16 3 -9 6 -18 6
-20 0 -2 5 -4 10 -4 6 0 10 8 10 18 0 14 2 15 10 2 8 -12 10 -11 10 7 0 12 -4
25 -10 28 -5 3 -10 1 -10 -4z"/>
<path d="M3021 6914 c-1 -12 8 -32 18 -45 l20 -24 -2 38 c-1 24 -6 36 -14 33
-6 -3 -14 0 -17 7 -2 7 -5 2 -5 -9z"/>
<path d="M3077 6915 c-9 -26 -9 -35 0 -34 4 0 10 -8 14 -18 7 -16 8 -16 7 2 0
11 -3 31 -7 45 -7 23 -8 24 -14 5z"/>
<path d="M2820 6905 c0 -9 -4 -13 -10 -10 -5 3 -10 0 -10 -7 0 -8 -5 -6 -11 5
-13 23 -31 22 -60 -5 -33 -31 -37 -32 -57 -10 -9 10 -12 11 -7 3 8 -12 6 -13
-12 -9 -21 6 -22 3 -16 -20 6 -24 5 -26 -10 -13 -15 12 -17 11 -17 -3 0 -11 9
-16 26 -16 19 0 25 4 20 15 -3 8 0 16 7 16 25 2 52 -3 65 -13 8 -7 12 -7 12 1
0 8 16 10 50 7 43 -4 52 -2 65 17 13 18 15 19 15 4 0 -12 8 -17 26 -17 19 0
25 4 20 15 -4 10 2 19 17 24 20 8 20 10 4 16 -10 4 -23 3 -29 -3 -8 -8 -15 -7
-25 6 -14 16 -14 16 -8 -3 3 -11 3 -16 -1 -12 -4 4 -13 2 -21 -4 -10 -9 -13
-8 -13 4 0 9 -4 19 -10 22 -5 3 -10 -1 -10 -10z"/>
<path d="M2376 6833 c-5 -13 -47 -14 -56 -1 -3 4 -18 -1 -33 -11 l-28 -18 34
-17 c58 -27 82 -22 99 22 12 31 12 39 2 39 -7 0 -15 -6 -18 -14z"/>
<path d="M2050 6768 c0 -6 -6 -8 -12 -6 -7 3 -17 0 -23 -6 -18 -19 -32 -81
-24 -103 l8 -22 48 25 c26 13 53 24 59 24 7 0 15 7 18 16 8 21 8 39 0 31 -7
-7 -44 30 -44 43 0 4 -7 7 -15 7 -8 0 -15 -4 -15 -9z"/>
<path d="M2900 6311 c0 -11 5 -21 11 -21 5 0 7 -4 4 -10 -3 -5 -1 -10 4 -10
16 0 13 36 -4 50 -13 10 -15 9 -15 -9z"/>
<path d="M2805 6309 c-4 -6 -5 -12 -2 -15 2 -3 7 2 10 11 7 17 1 20 -8 4z"/>
<path d="M2983 6297 c-4 -6 -1 -7 6 -3 7 5 20 1 30 -8 17 -15 19 -15 32 1 9
11 10 14 2 9 -7 -4 -13 -4 -13 1 0 12 -49 12 -57 0z"/>
<path d="M2617 6273 c4 -11 3 -14 -5 -9 -8 5 -8 -1 -1 -24 13 -36 23 -40 17
-5 -3 14 -1 25 3 25 5 0 6 7 3 15 -4 8 -10 15 -15 15 -4 0 -5 -7 -2 -17z"/>
<path d="M2645 6250 c-3 -5 -1 -10 4 -10 6 0 11 5 11 10 0 6 -2 10 -4 10 -3 0
-8 -4 -11 -10z"/>
<path d="M2746 6243 c-3 -8 -1 -11 4 -8 5 3 20 -3 32 -14 24 -23 43 -28 32 -8
-5 9 -4 9 5 1 15 -14 75 12 65 28 -4 6 -9 6 -13 2 -8 -12 -54 -11 -63 1 -5 6
-12 4 -18 -5 -8 -13 -10 -13 -10 1 0 19 -27 21 -34 2z"/>
<path d="M3050 6252 c0 -5 7 -15 15 -22 8 -7 15 -9 15 -6 0 4 -7 14 -15 22 -8
9 -15 11 -15 6z"/>
<path d="M3015 6240 c-4 -7 -18 -10 -31 -7 -14 2 -24 -1 -24 -7 0 -7 12 -11
28 -10 15 1 33 -3 40 -9 20 -15 26 -1 9 23 -10 15 -17 18 -22 10z"/>
<path d="M2687 6233 c-12 -11 -8 -23 7 -23 8 0 17 -7 20 -16 3 -8 2 -13 -3
-10 -5 3 -19 -2 -31 -12 l-22 -18 31 1 c17 0 31 4 31 9 0 5 7 3 15 -4 12 -10
16 -9 22 6 4 11 2 19 -6 22 -9 3 -9 8 1 20 11 13 11 14 0 8 -17 -10 -65 2 -57
14 7 11 2 13 -8 3z"/>
<path d="M3000 6189 c0 -5 5 -7 10 -4 6 3 10 8 10 11 0 2 -4 4 -10 4 -5 0 -10
-5 -10 -11z"/>
<path d="M2773 6165 c0 -8 4 -12 9 -9 5 3 6 10 3 15 -9 13 -12 11 -12 -6z"/>
<path d="M2958 6173 c7 -3 16 -2 19 1 4 3 -2 6 -13 5 -11 0 -14 -3 -6 -6z"/>
<path d="M2880 6155 c0 -8 2 -15 4 -15 2 0 6 7 10 15 3 8 1 15 -4 15 -6 0 -10
-7 -10 -15z"/>
<path d="M2848 6143 c7 -3 16 -2 19 1 4 3 -2 6 -13 5 -11 0 -14 -3 -6 -6z"/>
<path d="M2680 6131 c0 -6 5 -13 10 -16 6 -3 10 1 10 9 0 9 -4 16 -10 16 -5 0
-10 -4 -10 -9z"/>
<path d="M2726 6125 c-3 -8 -1 -15 3 -15 5 0 11 7 15 15 3 8 1 15 -3 15 -5 0
-11 -7 -15 -15z"/>
<path d="M2792 6101 c-10 -6 -10 -10 1 -20 12 -9 16 -7 20 9 5 21 0 25 -21 11z"/>
<path d="M2770 6060 c0 -6 7 -10 15 -10 8 0 15 2 15 4 0 2 -7 6 -15 10 -8 3
-15 1 -15 -4z"/>
<path d="M2820 6044 c0 -8 -6 -11 -17 -7 -14 4 -15 3 -7 -6 7 -7 22 -9 38 -5
31 7 34 20 6 27 -13 3 -20 0 -20 -9z"/>
<path d="M2870 6049 c0 -5 5 -7 10 -4 6 3 10 8 10 11 0 2 -4 4 -10 4 -5 0 -10
-5 -10 -11z"/>
<path d="M4350 5881 c0 -12 6 -21 16 -21 9 0 14 7 12 17 -5 25 -28 28 -28 4z"/>
<path d="M4431 5764 c0 -11 3 -14 6 -6 3 7 2 16 -1 19 -3 4 -6 -2 -5 -13z"/>
<path d="M4521 5538 c1 -17 2 -19 6 -5 2 9 9 17 14 17 6 0 8 -4 4 -9 -3 -5 5
-17 17 -27 15 -11 17 -14 6 -11 -13 5 -18 1 -18 -12 0 -24 19 -31 44 -19 12 7
16 7 12 0 -6 -9 34 -26 42 -17 7 7 -99 105 -114 105 -8 0 -14 -9 -13 -22z"/>
<path d="M4450 5531 c0 -10 19 -25 25 -20 1 2 -3 10 -11 17 -8 7 -14 8 -14 3z"/>
<path d="M4471 5474 c0 -11 3 -14 6 -6 3 7 2 16 -1 19 -3 4 -6 -2 -5 -13z"/>
<path d="M4540 5449 c0 -5 4 -8 9 -4 6 3 15 -5 22 -17 11 -21 11 -22 -4 -10
-16 14 -37 9 -37 -9 0 -6 5 -7 10 -4 6 3 13 0 15 -8 9 -23 62 -9 67 18 4 16 1
22 -9 18 -7 -3 -11 -9 -8 -13 3 -5 0 -12 -7 -16 -7 -4 -10 -3 -5 1 4 5 -3 19
-15 32 -23 25 -38 30 -38 12z"/>
<path d="M4971 5421 c-9 -6 -10 -11 -2 -15 13 -8 31 1 31 15 0 11 -11 11 -29
0z"/>
<path d="M5066 5405 c-3 -9 -18 -15 -37 -15 -19 0 -37 -7 -45 -17 -8 -11 -13
-13 -14 -5 0 6 -7 12 -16 12 -8 0 -12 -5 -8 -11 3 -6 1 -15 -6 -19 -7 -4 -9
-13 -5 -19 5 -9 11 -7 20 6 7 10 17 14 22 10 8 -9 9 -11 13 -49 2 -20 3 -19
10 7 l8 30 1 -32 c1 -36 3 -38 32 -23 10 6 19 7 19 3 0 -12 -20 -39 -20 -28 0
6 -10 -1 -21 -15 -11 -14 -18 -20 -15 -13 4 6 2 14 -4 18 -6 4 -7 11 -4 17 4
6 1 8 -7 6 -8 -3 -13 -11 -11 -18 5 -20 -20 -31 -37 -17 -12 9 -13 9 -7 0 5
-9 0 -12 -17 -11 -14 1 -23 7 -21 13 3 6 -4 19 -15 29 -11 10 -17 24 -14 32 3
8 0 14 -6 14 -6 0 -11 6 -11 13 0 8 -7 14 -15 14 -20 0 -19 -14 1 -25 12 -7
17 -24 18 -55 1 -32 7 -50 19 -60 17 -12 17 -14 3 -26 -9 -7 -13 -18 -9 -24 3
-6 1 -7 -6 -3 -6 4 -9 12 -5 17 3 6 -5 7 -23 3 -25 -7 -27 -6 -14 9 7 10 10
17 6 17 -4 0 -2 7 5 15 19 23 -6 19 -30 -5 l-21 -21 38 -34 c30 -28 35 -37 25
-47 -10 -10 -15 -10 -22 2 -6 9 -10 10 -10 3 0 -6 8 -19 18 -29 16 -17 17 -17
21 1 2 15 9 8 27 -25 13 -25 23 -39 24 -32 0 7 5 10 10 7 8 -5 8 -11 0 -20
-15 -18 -9 -97 8 -103 6 -2 12 1 12 8 0 6 -4 8 -10 5 -17 -10 -11 37 7 57 16
18 16 18 0 12 -10 -3 -17 -1 -17 5 0 6 5 12 10 12 6 1 14 2 19 3 18 2 24 16
12 30 -14 16 9 30 57 35 6 0 12 5 12 10 0 4 -11 6 -24 4 -24 -5 -42 19 -29 39
3 7 1 8 -6 4 -19 -12 -24 23 -7 49 12 19 23 24 41 21 20 -4 25 0 25 14 0 13 9
22 26 26 15 4 23 12 20 20 -7 19 20 37 44 29 12 -4 25 -18 31 -32 5 -13 15
-23 21 -21 20 7 21 75 1 97 -15 18 -19 18 -37 5 -26 -18 -36 -18 -36 1 0 8 8
15 17 15 14 0 13 4 -6 24 -13 14 -20 29 -16 35 3 6 2 11 -3 11 -6 0 -12 -7
-16 -15z m-150 -343 c-4 -26 -23 -25 -28 1 -4 19 -1 23 13 20 9 -3 16 -12 15
-21z"/>
<path d="M4891 5391 c-11 -7 -10 -13 4 -35 10 -14 18 -26 19 -26 4 0 -2 61 -6
65 -2 2 -10 0 -17 -4z"/>
<path d="M5161 5381 c-17 -11 12 -46 33 -38 9 4 16 13 16 21 0 16 -32 27 -49
17z"/>
<path d="M4546 5343 c-6 -14 -5 -15 5 -6 7 7 10 15 7 18 -3 3 -9 -2 -12 -12z"/>
<path d="M4727 5329 c7 -7 15 -10 18 -7 3 3 -2 9 -12 12 -14 6 -15 5 -6 -5z"/>
<path d="M4953 5312 c-8 -5 -7 -12 4 -27 15 -19 15 -19 8 4 -5 18 -4 22 5 16
9 -5 11 -4 6 3 -8 14 -8 14 -23 4z"/>
<path d="M4755 5300 c-5 -9 48 -70 62 -70 4 0 2 5 -5 12 -7 7 -12 19 -12 28 0
18 -37 44 -45 30z"/>
<path d="M5460 5258 c0 -35 5 -35 39 0 l28 27 -34 1 c-30 1 -33 -2 -33 -28z"/>
<path d="M4720 5260 c-12 -8 -11 -10 8 -10 12 0 22 5 22 10 0 13 -11 13 -30 0z"/>
<path d="M4773 5225 c0 -8 4 -12 9 -9 4 3 8 9 8 15 0 5 -4 9 -8 9 -5 0 -9 -7
-9 -15z"/>
<path d="M5483 5206 c-10 -11 -9 -16 5 -21 9 -3 13 -3 9 1 -4 4 -2 13 4 21 15
17 -2 16 -18 -1z"/>
<path d="M5039 5183 c-1 -10 -1 -21 -1 -25 1 -3 -5 -11 -13 -18 -15 -13 -10
-40 9 -40 7 0 13 20 14 50 1 28 0 50 -3 50 -3 0 -6 -8 -6 -17z"/>
<path d="M4757 5183 c-10 -9 -9 -23 1 -23 5 0 9 7 9 15 0 17 -1 18 -10 8z"/>
<path d="M5293 5176 c-13 -6 -23 -14 -23 -18 0 -5 -7 -8 -15 -8 -7 0 -18 -8
-23 -17 -9 -16 -45 -38 -104 -65 -21 -9 -27 -18 -23 -33 3 -11 2 -14 -1 -7 -3
6 -17 12 -30 12 -13 0 -24 5 -24 10 0 6 5 10 10 10 19 0 10 26 -10 27 -18 2
-24 -6 -17 -23 1 -4 -8 -10 -20 -15 -13 -5 -23 -15 -23 -23 0 -7 -7 -17 -16
-20 -8 -3 -12 -10 -9 -16 4 -6 11 -8 16 -5 5 4 9 1 9 -4 0 -6 -4 -11 -10 -11
-5 0 -10 -5 -10 -11 0 -6 6 -9 14 -6 8 3 20 -1 26 -9 14 -16 35 -19 25 -4 -4
6 -8 23 -11 38 -4 24 -3 25 9 10 8 -10 17 -15 21 -11 4 4 4 0 1 -8 -4 -11 1
-18 17 -22 22 -6 22 -7 3 -21 -16 -12 -18 -17 -7 -27 10 -11 12 -9 12 5 0 12
5 16 15 12 8 -3 15 -1 15 5 0 6 5 7 10 4 6 -3 10 3 10 14 0 12 5 21 11 21 5 0
7 6 3 13 -4 6 -4 9 1 5 14 -13 37 13 25 27 -8 10 -8 15 1 21 7 4 9 3 5 -4 -3
-6 -2 -13 4 -17 14 -9 13 -42 -2 -48 -10 -4 -10 -6 0 -6 7 -1 24 10 38 24 14
14 29 25 33 25 5 0 12 7 15 16 5 14 4 15 -7 5 -11 -9 -17 -8 -28 5 -9 11 -10
17 -1 23 6 3 10 15 8 26 -4 23 10 35 41 35 12 0 25 5 28 10 4 6 1 9 -6 8 -21
-5 -22 23 0 29 12 3 21 12 21 19 0 8 -1 13 -2 13 -2 -1 -13 -6 -25 -13z m-78
-114 c-3 -3 -11 0 -18 7 -9 10 -8 11 6 5 10 -3 15 -9 12 -12z m-45 -7 c0 -8
-2 -15 -4 -15 -2 0 -6 7 -10 15 -3 8 -1 15 4 15 6 0 10 -7 10 -15z m-23 -26
c2 -11 -4 -22 -13 -26 -8 -3 -13 -12 -10 -19 3 -8 1 -14 -4 -14 -13 0 -13 27
0 35 6 4 8 10 5 15 -6 10 5 43 13 35 3 -3 7 -15 9 -26z m73 -4 c14 -19 14 -19
-2 -6 -10 7 -18 18 -18 24 0 6 1 8 3 6 1 -2 9 -13 17 -24z"/>
<path d="M4990 5166 c0 -8 -6 -17 -12 -19 -8 -4 -7 -6 3 -6 19 -1 33 25 19 34
-6 4 -10 0 -10 -9z"/>
<path d="M5118 5106 c-15 -8 -30 -11 -34 -8 -5 4 -2 -1 5 -10 12 -17 14 -17
37 0 13 9 24 20 24 25 0 9 -1 9 -32 -7z"/>
<path d="M5245 5080 c-3 -6 1 -7 9 -4 18 7 21 14 7 14 -6 0 -13 -4 -16 -10z"/>
<path d="M3473 5009 c9 -5 17 -18 16 -27 0 -11 -3 -12 -6 -4 -2 6 -9 10 -14 6
-15 -9 -10 -20 11 -21 16 -1 20 4 20 28 0 24 -4 29 -22 29 -21 -1 -21 -2 -5
-11z"/>
<path d="M3431 4974 c0 -11 3 -14 6 -6 3 7 2 16 -1 19 -3 4 -6 -2 -5 -13z"/>
<path d="M3960 4943 c0 -18 33 -30 38 -14 3 9 7 9 18 0 12 -9 13 -9 9 4 -8 20
-65 29 -65 10z"/>
<path d="M3487 4943 c-4 -3 -7 -15 -7 -25 0 -11 -5 -16 -11 -13 -6 4 -8 14 -5
22 3 8 2 11 -4 8 -10 -6 -4 -76 8 -85 12 -9 13 -30 1 -27 -6 1 -14 -4 -16 -10
-3 -8 4 -13 18 -13 18 0 20 -3 11 -12 -8 -8 -9 -15 -1 -25 7 -7 8 -13 4 -13
-5 0 2 -9 15 -20 13 -11 29 -20 37 -20 7 0 13 -6 13 -14 0 -8 4 -17 9 -20 14
-9 41 4 41 20 0 8 -6 11 -15 8 -8 -4 -15 -1 -15 6 0 6 -4 9 -8 6 -4 -2 -14 -1
-22 5 -12 7 -12 9 -2 9 8 0 12 6 9 13 -2 6 5 22 16 34 19 21 19 24 4 41 -23
26 -21 42 6 43 15 1 17 3 6 6 -15 4 -33 37 -30 56 1 4 -4 7 -10 7 -7 0 -9 -9
-6 -23 4 -12 2 -29 -3 -37 -7 -11 -10 -5 -10 24 0 29 -3 37 -14 33 -10 -4 -13
-1 -9 9 5 15 1 18 -10 7z"/>
<path d="M3905 4940 c-3 -5 -12 -7 -20 -3 -8 3 -15 1 -15 -5 0 -14 16 -18 55
-14 24 3 32 8 28 18 -6 16 -39 19 -48 4z"/>
<path d="M4280 4929 c0 -5 4 -9 9 -9 5 0 17 -3 27 -7 11 -4 15 -3 11 4 -9 14
-47 24 -47 12z"/>
<path d="M3816 4904 c-5 -13 -9 -14 -22 -3 -13 10 -16 9 -21 -10 -4 -16 -11
-21 -24 -18 -14 4 -19 0 -19 -14 0 -21 4 -22 38 -13 12 4 22 14 22 24 0 14 5
17 22 12 15 -3 19 -2 14 7 -6 9 0 10 19 5 21 -5 27 -4 23 7 -7 21 -44 23 -52
3z"/>
<path d="M4100 4915 c0 -6 -15 -12 -32 -14 -64 -6 -68 -7 -80 -19 -7 -7 -18
-12 -25 -12 -8 0 -16 -7 -19 -15 -7 -17 -44 -21 -44 -5 0 6 -4 10 -10 10 -13
0 -13 -67 1 -75 6 -4 21 3 34 15 27 25 26 26 41 -45 7 -32 14 -41 34 -43 14
-2 30 -8 36 -13 6 -5 14 -6 18 -2 11 11 148 12 177 2 15 -6 35 -6 50 -1 15 6
33 5 48 -2 19 -8 25 -8 29 2 2 6 12 12 23 12 13 0 19 -7 19 -23 0 -16 6 -23
20 -24 12 -1 20 4 20 13 0 15 33 16 57 1 6 -4 14 -3 18 3 11 17 43 11 65 -12
18 -19 18 -23 5 -31 -14 -7 -14 -11 -3 -25 11 -14 10 -15 -5 -9 -10 4 -20 7
-23 7 -2 0 -1 7 2 15 9 22 -14 18 -26 -4 -17 -33 -12 -38 45 -39 31 0 55 4 55
10 0 6 6 8 14 5 7 -3 19 0 25 6 6 6 11 7 11 2 0 -6 5 -3 10 5 7 12 13 13 28 3
21 -13 42 -1 42 24 0 7 5 13 10 13 6 0 10 5 10 10 0 6 -3 9 -7 8 -5 -2 -19 5
-33 15 l-24 17 24 0 25 1 -23 12 c-12 7 -20 16 -16 20 4 3 -5 4 -20 1 -30 -5
-33 3 -8 22 16 13 16 14 -1 8 -13 -5 -16 -2 -10 12 4 12 3 15 -5 10 -7 -4 -12
-14 -12 -23 0 -13 -3 -13 -16 -2 -8 7 -13 20 -11 29 3 13 -1 16 -19 12 -16 -3
-26 1 -30 12 -3 9 -14 16 -24 16 -11 0 -22 5 -25 10 -4 6 -10 8 -15 5 -5 -3
-23 1 -39 10 -37 19 -42 19 -35 1 3 -8 15 -16 26 -19 12 -3 17 -10 13 -17 -4
-6 -13 -9 -21 -6 -8 3 -14 1 -14 -5 0 -6 -7 -3 -16 5 -8 9 -18 16 -22 17 -20
2 -45 8 -79 20 -21 7 -42 12 -47 11 -4 -2 -15 3 -23 10 -16 13 -28 16 -88 22
-22 3 -42 5 -45 6 -3 1 -9 2 -14 1 -5 -1 -13 4 -17 11 -5 7 -9 8 -9 3z m73
-109 c5 -12 -40 -55 -47 -44 -1 2 -7 11 -14 20 -11 14 -10 16 7 11 14 -3 23 0
27 11 8 20 20 21 27 2z m-93 -17 c0 -5 -4 -9 -10 -9 -5 0 -10 7 -10 16 0 8 5
12 10 9 6 -3 10 -10 10 -16z"/>
<path d="M5013 4900 c-1 -11 2 -22 8 -25 5 -4 8 3 6 14 -4 28 -12 34 -14 11z"/>
<path d="M2200 4888 c0 -10 6 -18 14 -18 14 0 16 -23 4 -36 -4 -3 -24 0 -45 7
-21 7 -44 12 -52 10 -7 -1 -10 2 -6 8 4 8 -2 8 -19 1 -27 -10 -87 -21 -118
-21 -10 0 -18 -4 -18 -10 0 -5 -9 -9 -19 -9 -11 0 -21 -5 -23 -10 -2 -6 -14
-12 -28 -15 -22 -4 -74 -16 -90 -20 -3 -1 -18 -5 -35 -10 -16 -4 -35 -12 -42
-17 -7 -5 -13 -4 -15 3 -3 9 -9 9 -24 1 -18 -10 -18 -11 -1 -17 9 -4 17 -15
18 -24 0 -11 3 -10 9 5 11 27 30 40 30 20 0 -8 -5 -16 -11 -18 -15 -5 74 -48
100 -48 14 0 20 -4 15 -12 -5 -7 -3 -8 6 -3 7 4 15 2 20 -5 4 -7 45 -14 106
-17 54 -3 108 -11 119 -18 11 -6 34 -11 50 -10 17 1 36 -2 43 -8 8 -6 17 -5
27 3 9 7 19 10 23 6 9 -9 -28 -37 -39 -30 -5 3 -9 -6 -9 -20 0 -26 14 -35 25
-16 4 6 11 5 19 -3 8 -6 12 -16 9 -20 -3 -5 4 -4 14 2 11 6 23 8 26 5 3 -3 16
1 29 10 21 15 14 22 -15 17 -5 -1 -6 3 -2 9 3 6 11 8 16 5 12 -8 -2 28 -15 38
-6 4 1 5 17 1 17 -4 27 -2 27 5 0 6 5 11 11 11 6 0 9 -7 6 -15 -11 -28 11 -25
24 4 7 16 18 27 25 24 7 -2 15 5 19 17 4 14 12 19 22 16 11 -5 14 1 12 22 -4
36 -17 52 -43 52 -12 0 -35 12 -51 28 -16 15 -49 39 -72 54 -40 26 -56 48 -33
48 6 0 10 -4 10 -9 0 -5 12 -8 26 -8 15 0 29 -4 33 -9 10 -15 81 -13 81 2 0
17 -20 29 -20 12 -1 -8 -6 -6 -15 6 -8 11 -15 17 -15 13 0 -4 -15 0 -32 9 -18
10 -54 18 -80 19 -41 1 -48 -1 -48 -17z m-70 -154 c0 -8 -4 -12 -10 -9 -5 3
-10 13 -10 21 0 8 5 12 10 9 6 -3 10 -13 10 -21z"/>
<path d="M4394 4888 c9 -5 16 -16 16 -24 0 -20 16 -9 23 15 4 16 0 19 -25 19
-23 -1 -26 -3 -14 -10z"/>
<path d="M4991 4864 c0 -11 3 -14 6 -6 3 7 2 16 -1 19 -3 4 -6 -2 -5 -13z"/>
<path d="M3675 4851 c-3 -5 -1 -12 5 -16 5 -3 10 1 10 9 0 18 -6 21 -15 7z"/>
<path d="M3825 4820 c-15 -7 -16 -9 -4 -9 9 -1 22 -8 30 -17 10 -13 10 -17 -2
-25 -11 -7 -10 -9 5 -9 12 0 16 -5 12 -16 -3 -9 -6 -18 -6 -20 0 -3 -5 -2 -12
2 -6 4 -8 3 -5 -3 3 -5 25 -9 49 -7 55 2 60 5 23 13 -19 4 -31 13 -33 26 -2
11 -11 28 -20 38 -9 10 -11 17 -4 17 7 0 12 5 12 10 0 12 -17 12 -45 0z"/>
<path d="M2412 4800 c0 -14 2 -19 5 -12 2 6 2 18 0 25 -3 6 -5 1 -5 -13z"/>
<path d="M3790 4784 c0 -12 -10 -28 -22 -36 -19 -13 -21 -18 -10 -31 10 -11
82 -30 82 -21 0 0 -11 13 -25 29 -18 19 -23 31 -16 39 6 7 6 17 1 26 -8 12
-10 11 -10 -6z"/>
<path d="M3637 4744 c-8 -8 1 -24 14 -24 5 0 9 7 9 15 0 15 -12 20 -23 9z"/>
<path d="M1651 4724 c0 -11 3 -14 6 -6 3 7 2 16 -1 19 -3 4 -6 -2 -5 -13z"/>
<path d="M2475 4700 c-3 -5 1 -10 9 -10 9 0 16 5 16 10 0 6 -4 10 -9 10 -6 0
-13 -4 -16 -10z"/>
<path d="M2610 4655 c0 -9 5 -15 11 -13 6 2 11 8 11 13 0 5 -5 11 -11 13 -6 2
-11 -4 -11 -13z"/>
<path d="M3620 4642 c0 -5 7 -9 15 -9 8 0 12 4 9 9 -3 4 -9 8 -15 8 -5 0 -9
-4 -9 -8z"/>
<path d="M4770 4624 c0 -8 5 -12 10 -9 6 3 10 10 10 16 0 5 -4 9 -10 9 -5 0
-10 -7 -10 -16z"/>
<path d="M4501 4604 c0 -11 3 -14 6 -6 3 7 2 16 -1 19 -3 4 -6 -2 -5 -13z"/>
<path d="M3670 4579 c0 -5 5 -7 10 -4 6 3 10 8 10 11 0 2 -4 4 -10 4 -5 0 -10
-5 -10 -11z"/>
<path d="M1840 4470 c0 -5 5 -10 11 -10 5 0 7 5 4 10 -3 6 -8 10 -11 10 -2 0
-4 -4 -4 -10z"/>
<path d="M1690 4435 c0 -8 2 -15 4 -15 2 0 6 7 10 15 3 8 1 15 -4 15 -6 0 -10
-7 -10 -15z"/>
<path d="M2241 4420 c0 -8 6 -26 13 -39 l14 -24 7 22 c4 12 4 25 1 28 -3 4 -6
-2 -6 -13 -1 -14 -5 -11 -15 11 -7 17 -14 23 -14 15z"/>
<path d="M1780 4405 c0 -8 7 -15 16 -15 14 0 14 3 4 15 -7 8 -14 15 -16 15 -2
0 -4 -7 -4 -15z"/>
<path d="M1968 4363 c7 -3 16 -2 19 1 4 3 -2 6 -13 5 -11 0 -14 -3 -6 -6z"/>
<path d="M3510 3851 c-66 -21 -170 -89 -170 -112 0 -4 21 -9 48 -12 26 -3 69
-11 95 -18 38 -10 53 -10 68 -1 16 10 21 10 25 -3 7 -18 30 -20 41 -2 4 7 27
21 51 31 61 27 54 63 -21 105 -38 21 -91 26 -137 12z"/>
<path d="M2605 3798 c-31 -17 -52 -42 -59 -69 -3 -13 -3 -19 0 -12 4 9 11 9
30 1 17 -8 31 -8 48 0 20 9 25 8 30 -5 4 -8 13 -13 21 -9 10 4 15 -1 15 -16 0
-16 3 -18 14 -9 10 8 26 9 57 2 24 -6 51 -9 59 -7 24 5 50 18 50 25 0 18 -106
83 -157 96 -68 18 -81 18 -108 3z"/>
<path d="M3307 3713 c-12 -12 -7 -33 8 -33 17 0 19 9 7 28 -5 7 -11 9 -15 5z"/>
<path d="M4317 3539 c7 -7 15 -10 18 -7 3 3 -2 9 -12 12 -14 6 -15 5 -6 -5z"/>
<path d="M4357 3503 c-4 -3 -1 -15 5 -27 6 -11 11 -22 10 -23 -7 -11 1 -21 12
-17 9 3 13 -3 13 -18 1 -49 2 -51 18 -38 24 20 30 4 11 -26 -15 -22 -16 -28
-3 -42 8 -10 17 -24 20 -32 4 -8 6 -4 5 10 -4 42 16 35 32 -12 l14 -43 7 30
c5 23 7 25 8 8 1 -29 29 -45 55 -31 17 9 18 8 13 -13 -8 -31 13 -79 35 -79 9
0 20 -5 23 -10 4 -6 11 -8 16 -5 20 13 7 55 -30 102 -59 73 -257 273 -264 266z"/>
<path d="M1944 3456 c0 -13 4 -22 9 -19 10 6 9 31 -2 37 -5 3 -8 -5 -7 -18z"/>
<path d="M1891 3254 c0 -11 3 -14 6 -6 3 7 2 16 -1 19 -3 4 -6 -2 -5 -13z"/>
<path d="M4405 3260 c3 -5 8 -10 11 -10 2 0 4 5 4 10 0 6 -5 10 -11 10 -5 0
-7 -4 -4 -10z"/>
<path d="M1743 3183 c-15 -5 -18 -33 -4 -33 8 0 25 30 19 35 -2 1 -9 0 -15 -2z"/>
<path d="M1780 3145 c0 -8 2 -15 4 -15 2 0 6 7 10 15 3 8 1 15 -4 15 -6 0 -10
-7 -10 -15z"/>
<path d="M1664 3098 c-11 -12 -19 -31 -17 -40 4 -15 6 -15 24 3 11 11 19 29
17 41 -3 19 -4 19 -24 -4z"/>
<path d="M1699 3067 c-14 -28 -31 -51 -38 -49 -8 2 -9 -3 -3 -15 5 -10 6 -26
3 -37 -11 -30 -1 -75 15 -69 8 3 14 9 14 15 0 5 -4 6 -10 3 -15 -9 -12 4 5 21
8 9 20 12 26 8 8 -5 8 -8 -1 -14 -7 -4 -9 -17 -4 -34 8 -34 14 -28 20 20 3 23
0 40 -8 45 -8 5 -9 11 -1 21 13 15 6 68 -9 68 -5 0 -2 7 6 16 13 12 23 54 14
54 -2 0 -15 -24 -29 -53z"/>
<path d="M4620 3110 c0 -7 8 -35 18 -63 13 -38 14 -51 5 -54 -15 -6 -17 -43
-3 -43 6 0 15 12 21 26 5 15 12 24 15 21 3 -3 1 -14 -4 -24 -6 -11 -7 -25 -2
-33 7 -12 10 -11 15 5 4 11 11 28 16 37 18 34 -1 140 -20 110 -6 -10 -14 -7
-34 8 -16 13 -27 16 -27 10z m57 -92 c-3 -8 -6 -5 -6 6 -1 11 2 17 5 13 3 -3
4 -12 1 -19z"/>
<path d="M4593 2983 c2 -18 -1 -34 -7 -36 -5 -2 -3 -6 5 -9 18 -7 24 36 8 60
-8 14 -9 10 -6 -15z"/>
<path d="M4420 2935 c0 -8 7 -15 15 -15 9 0 12 6 9 15 -4 8 -10 15 -15 15 -5
0 -9 -7 -9 -15z"/>
<path d="M3560 2920 c-9 -6 -10 -10 -3 -10 6 0 15 5 18 10 8 12 4 12 -15 0z"/>
<path d="M3726 2918 c4 -7 3 -8 -4 -4 -7 4 -22 0 -34 -8 -19 -14 -20 -16 -5
-17 30 -2 35 -4 43 -11 3 -4 -3 -6 -14 -3 -14 2 -26 -5 -37 -21 -20 -31 -37
-31 -29 1 5 20 3 24 -10 19 -9 -3 -16 -11 -16 -18 0 -6 -5 -3 -11 8 -8 13 -13
15 -19 6 -6 -9 -13 -9 -31 3 -21 14 -26 14 -43 1 -16 -11 -17 -14 -4 -14 9 0
19 -6 21 -12 4 -10 8 -10 15 1 7 9 12 10 16 2 4 -6 16 -11 27 -11 11 0 33 -7
49 -15 27 -14 29 -14 35 5 6 18 32 26 72 21 15 -2 13 60 -2 71 -15 12 -27 9
-19 -4z"/>
<path d="M3600 2910 c-8 -5 -11 -12 -7 -16 4 -4 13 -2 19 4 15 15 7 24 -12 12z"/>
<path d="M4274 2890 c-6 -26 -9 -29 -38 -23 -17 3 -32 10 -34 15 -8 18 -22 6
-22 -18 0 -16 -5 -24 -12 -21 -7 2 -12 10 -10 16 1 6 -10 11 -24 11 -14 0 -34
5 -46 11 -22 12 -148 19 -148 8 0 -4 -14 -5 -30 -3 -21 4 -32 1 -36 -10 -3 -9
-10 -14 -14 -11 -5 3 -12 0 -16 -6 -4 -8 -9 -7 -15 2 -7 12 -9 12 -9 0 0 -11
-3 -11 -15 -1 -8 7 -15 19 -15 26 0 8 -4 14 -9 14 -13 0 -8 -23 12 -53 9 -15
17 -35 17 -46 0 -19 2 -18 25 5 14 14 25 29 25 34 0 6 7 10 15 10 8 0 15 5 15
10 0 17 53 0 71 -23 15 -19 17 -19 26 -2 8 13 17 16 37 11 15 -4 24 -11 20
-17 -3 -6 3 -13 14 -16 39 -10 50 -157 13 -170 -9 -3 -24 -13 -33 -21 -10 -8
-27 -12 -38 -9 -14 3 -24 -1 -31 -15 -9 -17 -17 -19 -47 -13 -21 3 -47 13 -59
21 -28 18 -43 18 -43 1 0 -8 -9 -22 -20 -32 -18 -16 -25 -17 -60 -6 -21 6 -47
19 -56 29 -11 10 -19 13 -21 6 -13 -40 -32 -49 -93 -47 -33 1 -69 7 -78 12
-13 8 -22 4 -39 -17 -21 -27 -23 -27 -160 -30 -76 -1 -192 -5 -257 -9 l-120
-6 -23 29 c-13 16 -23 24 -23 17 0 -14 -61 -33 -107 -33 -21 0 -37 7 -45 19
-11 18 -13 17 -45 -17 -32 -34 -34 -35 -48 -16 -8 10 -15 25 -15 32 0 23 -20
14 -57 -28 l-22 -26 192 -3 c439 -9 698 -4 725 13 13 8 28 11 97 20 17 2 102
9 190 15 226 16 229 17 298 51 63 31 237 187 237 213 0 7 9 30 20 52 19 38 19
75 -1 75 -5 0 -12 -13 -15 -30z"/>
<path d="M3840 2895 c0 -9 6 -12 15 -9 8 4 12 10 9 15 -8 14 -24 10 -24 -6z"/>
<path d="M1681 2864 c0 -11 3 -14 6 -6 3 7 2 16 -1 19 -3 4 -6 -2 -5 -13z"/>
<path d="M2360 2862 c-36 -9 -68 -21 -72 -27 -4 -6 -23 -12 -44 -13 -38 -3
-94 -29 -94 -45 0 -5 -6 -7 -12 -5 -7 3 -17 1 -23 -4 -5 -5 -19 -15 -30 -22
-19 -14 -19 -14 0 -51 11 -20 55 -63 100 -98 44 -34 80 -60 80 -59 0 7 55 -21
55 -28 0 -4 6 -7 13 -8 6 0 32 -4 56 -8 32 -5 45 -3 51 7 5 7 6 16 2 19 -4 3
-12 14 -18 25 -8 15 -22 20 -50 20 -35 0 -39 3 -45 30 -4 17 -7 44 -8 62 -1
25 2 30 17 26 10 -2 26 -16 35 -31 l16 -27 1 36 c0 22 -8 47 -20 62 -22 28
-25 48 -10 63 12 12 3 44 -12 44 -5 0 -7 4 -3 10 3 6 15 6 29 0 19 -7 28 -4
47 16 26 28 26 28 -61 6z"/>
<path d="M3404 2848 c4 -14 0 -18 -21 -18 -38 0 -25 -7 25 -14 35 -4 42 -3 43
12 0 10 3 12 6 5 2 -7 9 -13 15 -13 7 0 6 5 -1 14 -7 8 -21 12 -32 9 -12 -4
-25 0 -31 8 -8 11 -9 10 -4 -3z"/>
<path d="M4320 2850 c0 -5 5 -10 10 -10 6 0 10 5 10 10 0 6 -4 10 -10 10 -5 0
-10 -4 -10 -10z"/>
<path d="M3330 2819 c0 -5 5 -7 10 -4 6 3 10 8 10 11 0 2 -4 4 -10 4 -5 0 -10
-5 -10 -11z"/>
<path d="M2371 2761 c-12 -8 -12 -12 2 -26 10 -9 17 -21 17 -27 0 -6 3 -8 7
-5 3 4 15 0 25 -10 17 -15 18 -15 18 9 0 28 -23 53 -39 44 -5 -4 -11 0 -13 9
-2 10 -8 12 -17 6z"/>
<path d="M2470 2501 c0 -5 5 -13 10 -16 6 -3 10 -2 10 4 0 5 -4 13 -10 16 -5
3 -10 2 -10 -4z"/>
<path d="M1195 679 c-4 -6 -5 -12 -2 -15 2 -3 7 2 10 11 7 17 1 20 -8 4z"/>
<path d="M5283 325 c0 -8 4 -15 9 -15 4 0 8 4 8 9 0 6 -4 12 -8 15 -5 3 -9 -1
-9 -9z"/>
</g>
</svg>
